IKResults
version=1
nRows=17
nColumns=40
inDegrees=yes

Units are S.I. units (second, meters, Newtons, ...)
If the header above contains a line with 'inDegrees', this indicates whether rotational values are in degrees (yes) or radians (no).

endheader
time	pelvis_tilt	pelvis_list	pelvis_rotation	pelvis_tx	pelvis_ty	pelvis_tz	hip_flexion_r	hip_adduction_r	hip_rotation_r	knee_angle_r	knee_angle_r_beta	ankle_angle_r	subtalar_angle_r	mtp_angle_r	hip_flexion_l	hip_adduction_l	hip_rotation_l	knee_angle_l	knee_angle_l_beta	ankle_angle_l	subtalar_angle_l	mtp_angle_l	lumbar_extension	lumbar_bending	lumbar_rotation	arm_flex_r	arm_add_r	arm_rot_r	elbow_flex_r	pro_sup_r	wrist_flex_r	wrist_dev_r	arm_flex_l	arm_add_l	arm_rot_l	elbow_flex_l	pro_sup_l	wrist_flex_l	wrist_dev_l
      8.37500000	    -12.49260233	      1.39467999	   -175.88280800	      0.19548436	      0.79484708	     -0.94371301	    -14.46812070	    -30.46999282	    -37.71975909	      3.45247165	      0.06025700	    -14.21433991	      0.00000000	      0.00000000	     -7.33351916	    -37.40734908	    -31.50341922	      7.46247230	      0.13024471	    -14.25386439	      0.00000000	      0.00000000	    -15.70430632	     -1.81108526	      1.69154970	     16.75405643	    -20.98879238	     84.65153139	     27.76434835	     71.19429893	      0.00000000	      0.00000000	     11.96713547	    -11.49249817	     20.52599137	     15.47458092	     83.69637910	      0.00000000	      0.00000000
      8.38000000	    -12.66213965	      1.43038408	   -175.88751457	      0.19543070	      0.79491230	     -0.94369807	    -14.60841974	    -30.44967633	    -37.70995541	      3.52587906	      0.06153820	    -14.19894835	      0.00000000	      0.00000000	     -7.54569524	    -37.45593685	    -31.55964595	      7.45388089	      0.13009476	    -14.23644213	      0.00000000	      0.00000000	    -15.76903789	     -1.76995306	      1.82377210	     16.58717168	    -20.99206807	     84.45545847	     27.67951181	     71.56270441	      0.00000000	      0.00000000	     11.90760373	    -11.91701789	     22.81915545	     15.86493390	     83.76660069	      0.00000000	      0.00000000
      8.38500000	    -12.75999727	      1.45945096	   -175.89908768	      0.19530432	      0.79492982	     -0.94371732	    -14.69116425	    -30.42865008	    -37.67523485	      3.57985000	      0.06248017	    -14.11700276	      0.00000000	      0.00000000	     -7.68107218	    -37.48925806	    -31.63341895	      7.45417263	      0.13009986	    -14.20902346	      0.00000000	      0.00000000	    -15.78799813	     -1.70320411	      1.69164185	     16.70615486	    -20.92864475	     84.83499439	     27.65311356	     71.27268257	      0.00000000	      0.00000000	     11.81742916	    -11.36618474	     19.96431299	     15.40871791	     83.68017457	      0.00000000	      0.00000000
      8.39000000	    -12.87678845	      1.38050764	   -175.90784520	      0.19521790	      0.79495238	     -0.94369788	    -14.81119912	    -30.53057352	    -37.65253963	      3.64117291	      0.06355046	    -14.06350297	      0.00000000	      0.00000000	     -7.84847113	    -37.39146407	    -31.69941933	      7.40723149	      0.12928058	    -14.17530378	      0.00000000	      0.00000000	    -15.82677506	     -1.75568326	      1.56438335	     16.75701345	    -20.84297870	     85.01619275	     27.52253224	     71.92309363	      0.00000000	      0.00000000	     11.66968102	    -11.19388128	     18.61757008	     15.32486091	     83.89574243	      0.00000000	      0.00000000
      8.39500000	    -13.03784996	      1.47853935	   -175.89328316	      0.19519398	      0.79500345	     -0.94373890	    -14.91330138	    -30.44697145	    -37.67003101	      3.76509608	      0.06571332	    -13.97964714	      0.00000000	      0.00000000	     -8.05027577	    -37.51364249	    -31.75857536	      7.37637612	      0.12874205	    -14.17527343	      0.00000000	      0.00000000	    -15.88684480	     -1.65964243	      1.71492596	     16.62280617	    -20.87555387	     85.00363385	     27.53592045	     71.09426802	      0.00000000	      0.00000000	     11.70007072	    -11.42416292	     20.36971544	     15.45122794	     83.64139342	      0.00000000	      0.00000000
      8.40000000	    -13.10941243	      1.60826915	   -175.79665027	      0.19516213	      0.79495732	     -0.94364865	    -15.01790405	    -30.28301607	    -37.69110923	      3.78581608	      0.06607496	    -13.93364321	      0.00000000	      0.00000000	     -8.04613829	    -37.68583428	    -31.68992407	      7.40947638	      0.12931976	    -14.09496686	      0.00000000	      0.00000000	    -15.88142560	     -1.45351045	      1.46981538	     16.64950146	    -20.79749785	     84.89755219	     27.42888191	     72.24954585	      0.00000000	      0.00000000	     11.58583650	    -10.89453074	     17.25379909	     15.05781808	     84.20686401	      0.00000000	      0.00000000
      8.40500000	    -13.22969992	      1.73151956	   -175.76244244	      0.19522161	      0.79496277	     -0.94372445	    -15.10781281	    -30.14147451	    -37.65662356	      3.83163822	      0.06687470	    -13.91534850	      0.00000000	      0.00000000	     -8.19375107	    -37.82977337	    -31.71012918	      7.34305224	      0.12816044	    -14.10667727	      0.00000000	      0.00000000	    -15.92101060	     -1.30743927	      1.44193774	     16.58598953	    -20.79433435	     84.63829772	     27.40824188	     72.72126350	      0.00000000	      0.00000000	     11.50390466	    -10.85350457	     16.99530254	     15.10073477	     84.01988235	      0.00000000	      0.00000000
      8.41000000	    -13.34063054	      1.72547107	   -175.74696742	      0.19529234	      0.79499538	     -0.94382514	    -15.20925925	    -30.15304941	    -37.66069544	      3.89255159	      0.06793784	    -13.82911887	      0.00000000	      0.00000000	     -8.37272160	    -37.81324273	    -31.77354415	      7.21595408	      0.12594216	    -14.26015203	      0.00000000	      0.00000000	    -15.97831097	     -1.30794411	      1.39954357	     16.61269675	    -20.76972162	     85.23002182	     27.48692440	     69.79981378	      0.00000000	      0.00000000	     11.46156736	    -10.69029149	     16.00408940	     14.97713708	     83.75562804	      0.00000000	      0.00000000
      8.41500000	    -13.44920322	      1.71963301	   -175.73480936	      0.19539467	      0.79500928	     -0.94390582	    -15.30368500	    -30.17011602	    -37.65356953	      3.96830716	      0.06926003	    -13.75140594	      0.00000000	      0.00000000	     -8.53732835	    -37.79578974	    -31.87733636	      7.11373638	      0.12415812	    -14.26083079	      0.00000000	      0.00000000	    -16.02113235	     -1.31957106	      1.46271751	     16.55417922	    -20.76840921	     84.95485216	     27.42024731	     71.84175449	      0.00000000	      0.00000000	     11.43719063	    -10.84431257	     16.94972935	     15.10846792	     83.69122940	      0.00000000	      0.00000000
      8.42000000	    -13.43492552	      1.89003286	   -175.55240502	      0.19558251	      0.79479712	     -0.94382012	    -15.34914289	    -29.93748228	    -37.75133042	      3.96940101	      0.06927912	    -13.70047031	      0.00000000	      0.00000000	     -8.33983243	    -38.04504857	    -31.68815696	      7.16629840	      0.12507550	    -14.21168467	      0.00000000	      0.00000000	    -15.94488967	     -1.08827521	      1.24437897	     16.61392801	    -20.73912877	     85.25313068	     27.42824759	     70.94120215	      0.00000000	      0.00000000	     11.41702873	    -10.58361281	     15.41147763	     14.86842065	     84.07089133	      0.00000000	      0.00000000
      8.42500000	    -13.50454081	      2.01307477	   -175.48599779	      0.19581942	      0.79476939	     -0.94391307	    -15.44548115	    -29.76363952	    -37.73969974	      3.92367707	      0.06848108	    -13.67459176	      0.00000000	      0.00000000	     -8.42990752	    -38.17297204	    -31.66271831	      7.01685740	      0.12246726	    -14.34505093	      0.00000000	      0.00000000	    -15.96999677	     -0.93689333	      1.13672382	     16.60167361	    -20.70359543	     85.24244733	     27.42004854	     70.44274011	      0.00000000	      0.00000000	     11.39989849	    -10.35473837	     14.09514060	     14.70246338	     83.79927170	      0.00000000	      0.00000000
      8.43000000	    -13.54212780	      2.11233989	   -175.30386101	      0.19610002	      0.79468804	     -0.94383980	    -15.59377752	    -29.57638856	    -37.84441820	      3.84238174	      0.06706221	    -13.71858498	      0.00000000	      0.00000000	     -8.35655445	    -38.29781597	    -31.50175468	      6.91466735	      0.12068371	    -14.33702982	      0.00000000	      0.00000000	    -15.96297406	     -0.79400272	      1.00648792	     16.51795697	    -20.65431421	     84.75873710	     27.29564476	     71.87240033	      0.00000000	      0.00000000	     11.35765074	    -10.44177404	     14.43557015	     14.79620687	     84.21667667	      0.00000000	      0.00000000
      8.43500000	    -13.56134714	      2.13995953	   -175.31250293	      0.19636314	      0.79459275	     -0.94403835	    -15.60740664	    -29.54032797	    -37.83784509	      3.81689335	      0.06661736	    -13.64421563	      0.00000000	      0.00000000	     -8.45930048	    -38.30923960	    -31.58217823	      6.76443744	      0.11806171	    -14.41071880	      0.00000000	      0.00000000	    -15.94251115	     -0.78169161	      0.98941565	     16.57448530	    -20.63995103	     84.91241300	     27.32008739	     72.09534108	      0.00000000	      0.00000000	     11.36356472	    -10.34384891	     13.90598914	     14.65560767	     83.70554065	      0.00000000	      0.00000000
      8.44000000	    -13.60776111	      2.14526520	   -175.23821813	      0.19661746	      0.79457377	     -0.94411068	    -15.74823873	    -29.47651447	    -37.87417281	      3.71637107	      0.06486291	    -13.70695939	      0.00000000	      0.00000000	     -8.54750778	    -38.28768081	    -31.55815522	      6.55117183	      0.11433952	    -14.53287382	      0.00000000	      0.00000000	    -15.95519212	     -0.77628033	      0.98298784	     16.54655592	    -20.59298013	     84.98679648	     27.23919770	     72.10444975	      0.00000000	      0.00000000	     11.37430816	    -10.47059296	     14.59789633	     14.69795902	     83.90002424	      0.00000000	      0.00000000
      8.44500000	    -13.59279358	      2.21216337	   -175.17137858	      0.19691267	      0.79443029	     -0.94411759	    -15.79275393	    -29.36345953	    -37.91433893	      3.61349191	      0.06306733	    -13.74535772	      0.00000000	      0.00000000	     -8.53261178	    -38.33979705	    -31.51883396	      6.42440635	      0.11212704	    -14.53836589	      0.00000000	      0.00000000	    -15.88659014	     -0.70227435	      1.03294950	     16.45113033	    -20.65464981	     84.92877811	     27.33035543	     71.16877718	      0.00000000	      0.00000000	     11.35157802	    -10.63386104	     15.81414343	     14.85510325	     83.39332723	      0.00000000	      0.00000000
      8.45000000	    -13.61897536	      2.19710965	   -175.16455949	      0.19725670	      0.79437200	     -0.94424077	    -15.86952425	    -29.34041501	    -37.92445078	      3.48799133	      0.06087693	    -13.77327182	      0.00000000	      0.00000000	     -8.64549740	    -38.28664820	    -31.53016211	      6.22560558	      0.10865732	    -14.63246525	      0.00000000	      0.00000000	    -15.87520801	     -0.73603212	      1.08885300	     16.45631031	    -20.62595925	     85.03129111	     27.29842947	     71.34386038	      0.00000000	      0.00000000	     11.36151764	    -10.91115336	     17.39229592	     15.03145140	     83.56846426	      0.00000000	      0.00000000
      8.45500000	    -13.58231551	      2.16972700	   -175.13978468	      0.19756047	      0.79429730	     -0.94428811	    -15.88812591	    -29.33107360	    -37.96163637	      3.36948041	      0.05880853	    -13.84289034	      0.00000000	      0.00000000	     -8.66970048	    -38.20852723	    -31.45992734	      6.03737932	      0.10537215	    -14.71784093	      0.00000000	      0.00000000	    -15.84544639	     -0.74038475	      0.88727067	     16.55364129	    -20.54810347	     85.08463714	     27.22571122	     71.83719047	      0.00000000	      0.00000000	     11.35925165	    -10.41381648	     14.35712040	     14.63246251	     83.69460276	      0.00000000	      0.00000000
